<?xml version="1.0" encoding="UTF-8"?>
<svg version="1.1" xmlns="http://www.w3.org/2000/svg" width="512" height="512">
<path d="M0 0 C4.38418745 3.29000145 8.39103423 6.8894628 12.30078125 10.7265625 C12.94015625 11.34144531 13.57953125 11.95632812 14.23828125 12.58984375 C24.63448621 23.42695919 28.42628489 38.55440328 32.453125 52.58203125 C33.00257753 54.46086311 33.55309896 56.33938268 34.10462952 58.21760559 C35.24786467 62.12070922 36.38248805 66.02616654 37.51000977 69.93383789 C38.95614569 74.94535845 40.41763671 79.95223199 41.88468075 84.95766735 C43.28780911 89.74757625 44.68318895 94.53973149 46.078125 99.33203125 C46.34434095 100.24401968 46.61055691 101.15600811 46.88484001 102.09563255 C47.63318921 104.66433639 48.37597349 107.23457916 49.11694336 109.80541992 C49.33971451 110.56745224 49.56248566 111.32948456 49.79200745 112.11460876 C50.6424874 115.08391007 51.30078125 117.62072746 51.30078125 120.7265625 C51.96078125 120.7265625 52.62078125 120.7265625 53.30078125 120.7265625 C53.5318457 119.55327393 53.76291016 118.37998535 54.00097656 117.17114258 C55.55977761 110.17959151 57.87041917 103.41326148 60.09765625 96.61328125 C60.57377033 95.15276828 61.04978158 93.69222178 61.5256958 92.23164368 C62.52119768 89.18050691 63.52027526 86.13056725 64.52148438 83.08129883 C65.79250824 79.20821399 67.05098386 75.33117945 68.30628586 71.45297527 C69.2848298 68.43679088 70.27197157 65.42346962 71.26139069 62.41083717 C71.72840432 60.98434714 72.19244569 59.55687991 72.65322113 58.12836266 C76.74349064 45.46760063 81.44926573 33.82862326 90.30078125 23.7265625 C90.83316406 23.11167969 91.36554688 22.49679688 91.9140625 21.86328125 C102.48543429 10.48454933 118.52461831 3.14168277 134.02734375 2.390625 C153.66164925 2.02721063 170.59704154 6.69278287 185.18847656 20.46704102 C197.09938487 32.23977638 204.57397645 48.19354048 204.80859375 65.0390625 C204.80472656 66.43125 204.80472656 66.43125 204.80078125 67.8515625 C204.82914063 68.75648437 204.8575 69.66140625 204.88671875 70.59375 C204.91218435 79.81229652 202.12492997 88.06890561 199.30078125 96.7265625 C198.70857028 98.56974348 198.11662307 100.41300923 197.52490234 102.25634766 C195.45502406 108.67155874 193.34682943 115.07398017 191.23828125 121.4765625 C190.44570541 123.8898892 189.65339403 126.30330277 188.86132812 128.71679688 C187.19383239 133.79664791 185.52496772 138.87604588 183.85498047 143.95507812 C181.33416825 151.62237161 178.81867468 159.29140385 176.3046875 166.9609375 C176.09883467 167.58892494 175.89298183 168.21691238 175.68089104 168.86392975 C174.84786319 171.40524052 174.01485222 173.94655683 173.18188763 176.48788834 C171.71013284 180.97806402 170.23787958 185.46807604 168.76538086 189.95800781 C162.90392346 207.83115163 157.05057087 225.70693834 151.20233154 243.58441162 C147.07604674 256.19786242 142.94670459 268.81029937 138.80914307 281.42005539 C138.15324488 283.41912849 137.49750116 285.41825221 136.84179688 287.41738892 C134.89647581 293.34794669 132.95037735 299.27824211 130.99983978 305.20708656 C127.16060357 316.8782588 123.33334524 328.55122666 119.65234375 340.2734375 C119.11264417 341.9810129 118.57277492 343.68853468 118.03271484 345.39599609 C117.08964892 348.37857727 116.16475406 351.36580195 115.25244141 354.35791016 C109.11984165 374.03453478 99.27949426 389.09895878 81.30078125 399.7265625 C70.29842641 405.20103518 60.6283012 407.02532309 48.4498291 407.00071716 C47.16388021 407.00595384 45.87793132 407.01119052 44.55301428 407.01658589 C40.99906039 407.03070862 37.4451942 407.03243027 33.89121628 407.03198898 C30.05186929 407.0336423 26.21255789 407.04671856 22.37322998 407.05818176 C13.98446767 407.0809928 5.59573073 407.08894844 -2.7930584 407.09400821 C-8.03695424 407.0972703 -13.28084279 407.10379595 -18.5247345 407.1110096 C-33.06019605 407.13057184 -47.59565084 407.14697779 -62.1311264 407.14988613 C-63.5253152 407.15016749 -63.5253152 407.15016749 -64.94766942 407.15045452 C-66.83170096 407.15082076 -68.7157325 407.15118446 -70.59976405 407.15154564 C-71.53492785 407.15172845 -72.47009165 407.15191126 -73.43359375 407.15209961 C-74.36990704 407.15228016 -75.30622033 407.15246071 -76.27090675 407.15264673 C-91.43012404 407.15618561 -106.58919903 407.18319181 -121.74836701 407.2205975 C-137.33383616 407.25874541 -152.91923484 407.27804409 -168.50475168 407.27834564 C-177.24662175 407.27892882 -185.98832212 407.28732999 -194.73014832 407.31634331 C-202.17648493 407.34094429 -209.62258998 407.34808174 -217.06895632 407.33309578 C-220.86246273 407.32596183 -224.65551271 407.32663037 -228.44896698 407.34950638 C-253.6869725 407.49263211 -272.03384728 405.04511119 -290.69921875 386.7265625 C-291.65828125 385.80423828 -291.65828125 385.80423828 -292.63671875 384.86328125 C-303.61727179 373.41703512 -308.2979006 357.57765828 -308.19921875 342.0390625 C-308.19422363 340.99540527 -308.18922852 339.95174805 -308.18408203 338.87646484 C-307.77426439 320.53076622 -300.45747908 306.72637337 -287.69921875 293.7265625 C-287.08433594 293.0871875 -286.46945312 292.4478125 -285.8359375 291.7890625 C-271.48632569 278.02326787 -252.05674063 275.64066209 -233.0871582 275.52124023 C-232.09068771 275.51134064 -231.09421722 275.50144104 -230.06755066 275.49124146 C-226.81589021 275.4599776 -223.56421521 275.43500986 -220.3125 275.41015625 C-218.04135282 275.38955629 -215.77020922 275.36855908 -213.49906921 275.34718323 C-207.55293693 275.29227647 -201.60677187 275.24273015 -195.6605835 275.19433594 C-189.58033367 275.14389009 -183.50013079 275.08832513 -177.41992188 275.03320312 C-165.51306105 274.9260062 -153.60615927 274.82447756 -141.69921875 274.7265625 C-144.09677788 272.80216217 -146.4951677 270.87881318 -148.89404297 268.95605469 C-149.56856003 268.41447723 -150.24307709 267.87289978 -150.93803406 267.31491089 C-155.81265363 263.4096453 -160.76130075 259.63496295 -165.82421875 255.9765625 C-174.62884748 249.55126795 -183.30206407 242.96357754 -191.9609375 236.34375 C-195.60885727 233.55504804 -199.27040561 230.78684906 -202.94921875 228.0390625 C-204.86621636 226.60200386 -206.78284809 225.16445709 -208.69921875 223.7265625 C-209.7049292 222.97463623 -209.7049292 222.97463623 -210.73095703 222.20751953 C-212.99553261 220.51120265 -215.25398406 218.80697063 -217.51171875 217.1015625 C-218.21780273 216.57473877 -218.92388672 216.04791504 -219.65136719 215.50512695 C-233.32040916 205.14035151 -243.41573847 190.92074815 -246.37890625 173.734375 C-248.53273406 153.50940656 -244.9458594 136.23861611 -232.56640625 119.9140625 C-221.78754004 107.24213377 -206.59353991 98.22341128 -189.88232422 96.4230957 C-187.0432347 96.29098162 -184.22864814 96.25868558 -181.38671875 96.2890625 C-180.38415039 96.29663574 -179.38158203 96.30420898 -178.34863281 96.31201172 C-159.20787433 96.73482435 -145.68939493 105.61657803 -131.00341797 116.94921875 C-126.81060999 120.18334061 -122.59726271 123.39058856 -118.38671875 126.6015625 C-117.50258301 127.27703125 -116.61844727 127.9525 -115.70751953 128.6484375 C-108.97370894 133.78362651 -102.17367096 138.82246135 -95.34326172 143.828125 C-88.7150772 148.69284758 -82.18470283 153.67324098 -75.69921875 158.7265625 C-75.69921875 154.45374826 -76.65035669 150.98786703 -77.87060547 146.95141602 C-78.21691513 145.78217339 -78.21691513 145.78217339 -78.57022095 144.58930969 C-79.07206198 142.89714978 -79.57634978 141.20571402 -80.08279037 139.514925 C-80.88699398 136.82845137 -81.68388486 134.13990683 -82.47879028 131.45066833 C-84.74033252 123.80460805 -87.01518108 116.16252614 -89.29443359 108.52172852 C-90.68915947 103.84430385 -92.07549523 99.16445433 -93.4570961 94.48313713 C-93.982465 92.7094012 -94.51104653 90.93661322 -95.04305649 89.16485786 C-102.00306734 65.98398914 -104.95663718 44.99296793 -93.26171875 22.6640625 C-84.29016887 7.256823 -69.59441311 -3.82140482 -52.37109375 -8.38671875 C-34.66339074 -12.25494397 -15.28594999 -10.01936218 0 0 Z " fill="#2092EF" transform="translate(307.69921875,57.2734375)"/>
<path d="M0 0 C1.50385254 0.01135986 1.50385254 0.01135986 3.03808594 0.02294922 C22.17884442 0.44576185 35.69732382 9.32751553 50.38330078 20.66015625 C54.57610876 23.89427811 58.78945604 27.10152606 63 30.3125 C63.88413574 30.98796875 64.76827148 31.6634375 65.67919922 32.359375 C71.6386162 36.90401316 77.64410873 41.38027318 83.6875 45.8125 C89.19748985 49.8559656 94.69511701 53.91180225 100.125 58.0625 C101.11371094 58.81789062 102.10242188 59.57328125 103.12109375 60.3515625 C103.96800781 61.03992188 104.81492188 61.72828125 105.6875 62.4375 C106.39261719 62.97375 107.09773437 63.51 107.82421875 64.0625 C110.80159591 67.85756355 111.76066654 72.21688015 113.0625 76.8125 C113.36067627 77.82675049 113.65885254 78.84100098 113.96606445 79.88598633 C116.29522966 87.87284266 118.47538142 95.90114815 120.62841797 103.93701172 C122.10294685 109.41227713 123.75699352 114.77004809 125.625 120.125 C127.45108562 125.81809047 128.92967078 131.60877115 130.4765625 137.3828125 C131.75428551 142.11942206 133.07074153 146.80279238 134.6875 151.4375 C136.97223776 157.98708157 138.68260702 164.68656285 140.4765625 171.3828125 C141.75428551 176.11942206 143.07074153 180.80279238 144.6875 185.4375 C146.97223776 191.98708157 148.68260702 198.68656285 150.4765625 205.3828125 C152.00433319 211.04636647 153.69433818 216.59400764 155.62890625 222.1328125 C157.12876712 226.81503498 158.36010392 231.562289 159.625 236.3125 C166.47595851 261.7970409 175.45006617 287.54599373 199.23046875 301.609375 C206.02484913 305.20233547 213.09432353 308.11148573 220.6875 309.4375 C220.6875 309.7675 220.6875 310.0975 220.6875 310.4375 C183.50602404 310.55209508 146.32457482 310.64012474 109.14295781 310.69282665 C104.74732315 310.69907973 100.35168883 310.70555138 95.95605469 310.7121582 C95.08101091 310.71346976 94.20596714 310.71478131 93.30440688 310.7161326 C79.15993526 310.73785343 65.01556588 310.77725652 50.87115479 310.82326398 C36.34364448 310.87012132 21.8161875 310.89781495 7.28860474 310.90794247 C-1.66635491 310.91478246 -10.62102553 310.93633818 -19.57589614 310.97708233 C-25.72742797 311.00363544 -31.87881169 311.01147276 -38.03039658 311.00500689 C-41.57274272 311.00182337 -45.11458596 311.00649286 -48.65684128 311.03352737 C-73.32892607 311.2124282 -91.12928238 308.28285378 -109.3125 290.4375 C-110.2715625 289.51517578 -110.2715625 289.51517578 -111.25 288.57421875 C-122.23055304 277.12797262 -126.91118185 261.28859578 -126.8125 245.75 C-126.80750488 244.70634277 -126.80250977 243.66268555 -126.79736328 242.58740234 C-126.38754564 224.24170372 -119.07076033 210.43731087 -106.3125 197.4375 C-105.69761719 196.798125 -105.08273438 196.15875 -104.44921875 195.5 C-90.09960694 181.73420537 -70.67002188 179.35159959 -51.70043945 179.23217773 C-50.70396896 179.22227814 -49.70749847 179.21237854 -48.68083191 179.20217896 C-45.42917146 179.1709151 -42.17749646 179.14594736 -38.92578125 179.12109375 C-36.65463407 179.10049379 -34.38349047 179.07949658 -32.11235046 179.05812073 C-26.16621818 179.00321397 -20.22005312 178.95366765 -14.27386475 178.90527344 C-8.19361492 178.85482759 -2.11341204 178.79926263 3.96679688 178.74414062 C15.8736577 178.6369437 27.78055948 178.53541506 39.6875 178.4375 C37.28994087 176.51309967 34.89155105 174.58975068 32.49267578 172.66699219 C31.81815872 172.12541473 31.14364166 171.58383728 30.44868469 171.02584839 C25.57406512 167.1205828 20.625418 163.34590045 15.5625 159.6875 C6.75787127 153.26220545 -1.91534532 146.67451504 -10.57421875 140.0546875 C-14.22213852 137.26598554 -17.88368686 134.49778656 -21.5625 131.75 C-23.47949761 130.31294136 -25.39612934 128.87539459 -27.3125 127.4375 C-28.31821045 126.68557373 -28.31821045 126.68557373 -29.34423828 125.91845703 C-31.60881386 124.22214015 -33.86726531 122.51790813 -36.125 120.8125 C-36.83108398 120.28567627 -37.53716797 119.75885254 -38.26464844 119.21606445 C-51.93369041 108.85128901 -62.02901972 94.63168565 -64.9921875 77.4453125 C-67.14601531 57.22034406 -63.55914065 39.94955361 -51.1796875 23.625 C-38.14666364 8.30302212 -20.07275756 -0.21455442 0 0 Z " fill="#F34336" transform="translate(126.3125,153.5625)"/>
<path d="M0 0 C4.38418745 3.29000145 8.39103423 6.8894628 12.30078125 10.7265625 C12.94015625 11.34144531 13.57953125 11.95632812 14.23828125 12.58984375 C24.72864126 23.52510742 28.56901078 38.92582819 32.70703125 53.0625 C33.28165186 54.99651453 33.85698272 56.93031816 34.4329834 58.86392212 C35.62807299 62.88708022 36.81351903 66.91291961 37.9921875 70.94091797 C39.5002584 76.09114165 41.03426165 81.23322318 42.57566071 86.37355614 C43.76542142 90.35266612 44.9405857 94.33597387 46.11149597 98.32066727 C46.67137926 100.21898161 47.23594401 102.11592201 47.80537415 104.0113945 C48.5981473 106.65759104 49.37081796 109.3088844 50.13867188 111.96240234 C50.37438904 112.7345105 50.6101062 113.50661865 50.85296631 114.30212402 C52.72142196 120.893464 52.28530701 126.46993387 50.05737305 133.00854492 C49.81008957 133.74679001 49.56280609 134.4850351 49.30802917 135.24565125 C49.04137955 136.01665665 48.77472992 136.78766205 48.5 137.58203125 C48.22235306 138.40552567 47.94470612 139.22902008 47.65864563 140.07746887 C46.77564683 142.69214523 45.88243784 145.30318329 44.98828125 147.9140625 C43.82268106 151.34409224 42.66109198 154.77547322 41.5 158.20703125 C41.21644653 159.04282715 40.93289307 159.87862305 40.64074707 160.73974609 C38.77851647 166.24803681 37.0337813 171.78233146 35.34985352 177.34790039 C33.28476303 183.99877012 31.03507595 190.58990453 28.81848145 197.1914978 C23.07401504 214.30883728 17.42815583 231.45661105 11.85864258 248.6315918 C8.43807146 259.17662116 4.99273283 269.71307672 1.5234375 280.2421875 C0.29133966 283.98688127 -0.94047436 287.7316683 -2.17224121 291.47647095 C-2.97372032 293.9100504 -3.77666826 296.34314666 -4.58117676 298.77572632 C-5.71161134 302.19428193 -6.83674526 305.61454362 -7.9609375 309.03515625 C-8.29471909 310.03971863 -8.62850067 311.04428101 -8.97239685 312.07928467 C-13.58064703 325.93336035 -13.58064703 325.93336035 -14.94921875 340.3515625 C-14.9234375 341.60324219 -14.89765625 342.85492188 -14.87109375 344.14453125 C-14.6526657 348.69677042 -14.29459827 353.20805721 -13.69921875 357.7265625 C-19.44453644 351.98124481 -20.57721341 340.49900038 -22.56640625 332.84765625 C-23.79567533 328.25964924 -25.24414415 323.74707274 -26.69921875 319.2265625 C-28.89773434 312.39210582 -30.83897271 305.55284717 -32.63671875 298.6015625 C-33.83844681 294.09508226 -35.2713923 289.66554769 -36.69921875 285.2265625 C-38.89757971 278.39205416 -40.8389703 271.5528565 -42.63671875 264.6015625 C-43.83844681 260.09508226 -45.2713923 255.66554769 -46.69921875 251.2265625 C-48.89757971 244.39205416 -50.8389703 237.5528565 -52.63671875 230.6015625 C-53.83844681 226.09508226 -55.2713923 221.66554769 -56.69921875 217.2265625 C-58.51267222 211.58869725 -60.21626233 205.96066065 -61.69921875 200.2265625 C-63.58775117 192.93997491 -65.83389968 185.7900213 -68.13671875 178.625 C-72.01490452 166.52475323 -75.61886406 154.34073726 -79.234375 142.16015625 C-79.49174376 141.29341845 -79.74911251 140.42668064 -80.01428032 139.53367805 C-81.37366234 134.95538159 -82.73221023 130.37683856 -84.09008789 125.7980957 C-85.48196884 121.10534632 -86.87686983 116.41350023 -88.272439 111.72184658 C-89.35601902 108.07695546 -90.43729549 104.43138382 -91.51797295 100.78563118 C-92.03097266 99.05644342 -92.54482274 97.32750768 -93.05958748 95.59884453 C-100.45342559 70.76133936 -106.43657696 48.0528286 -93.69921875 23.7265625 C-84.82889313 8.42408977 -71.33056259 -2.55765505 -54.46606445 -7.83105469 C-36.36854761 -12.63118851 -15.75273103 -10.3253195 0 0 Z " fill="#4AAC4E" transform="translate(307.69921875,57.2734375)"/>
<path d="M0 0 C1.00256836 0.00757324 2.00513672 0.01514648 3.03808594 0.02294922 C22.17884442 0.44576185 35.69732382 9.32751553 50.38330078 20.66015625 C54.57610876 23.89427811 58.78945604 27.10152606 63 30.3125 C63.88413574 30.98796875 64.76827148 31.6634375 65.67919922 32.359375 C71.6386162 36.90401316 77.64410873 41.38027318 83.6875 45.8125 C89.19748985 49.8559656 94.69511701 53.91180225 100.125 58.0625 C101.11371094 58.81789062 102.10242188 59.57328125 103.12109375 60.3515625 C103.96800781 61.03992188 104.81492188 61.72828125 105.6875 62.4375 C106.39261719 62.97375 107.09773437 63.51 107.82421875 64.0625 C110.80159591 67.85756355 111.76066654 72.21688015 113.0625 76.8125 C113.36067627 77.82675049 113.65885254 78.84100098 113.96606445 79.88598633 C116.29522966 87.87284266 118.47538142 95.90114815 120.62841797 103.93701172 C122.10294685 109.41227713 123.75699352 114.77004809 125.625 120.125 C127.45108562 125.81809047 128.92967078 131.60877115 130.4765625 137.3828125 C131.75428551 142.11942206 133.07074153 146.80279238 134.6875 151.4375 C136.97223776 157.98708157 138.68260702 164.68656285 140.4765625 171.3828125 C141.75428551 176.11942206 143.07074153 180.80279238 144.6875 185.4375 C146.97223776 191.98708157 148.68260702 198.68656285 150.4765625 205.3828125 C152.00433319 211.04636647 153.69433818 216.59400764 155.62890625 222.1328125 C157.12876712 226.81503498 158.36010392 231.562289 159.625 236.3125 C162.92728286 248.5964983 166.83633114 260.24341862 172.54077148 271.64233398 C173.31249038 273.21438537 174.00734652 274.8237197 174.6875 276.4375 C174.3575 277.0975 174.0275 277.7575 173.6875 278.4375 C173.24172607 278.08671387 172.79595215 277.73592773 172.33666992 277.37451172 C163.00392844 270.04274611 153.59352271 262.84383588 144.01513672 255.8359375 C137.04835774 250.7289523 130.17530999 245.50478153 123.31323242 240.25830078 C118.12402739 236.29158273 112.92004379 232.34685642 107.6875 228.4375 C101.55177227 223.85335364 95.45943923 219.21446058 89.375 214.5625 C81.77476641 208.75291546 74.10959231 203.04241299 66.38647461 197.39746094 C60.92295352 193.38968257 55.56346214 189.27047873 50.31274414 184.98706055 C47.20245095 182.48439604 44.02558676 180.4772619 40.53613281 178.55029297 C36.93310787 176.38143564 33.71852056 173.68251442 30.4375 171.0625 C24.16240602 166.11526594 17.82699479 161.27671791 11.375 156.5625 C3.62389468 150.8924058 -4.0346855 145.11046933 -11.66259766 139.27587891 C-16.41139931 135.64454652 -21.17265091 132.03223639 -25.96386719 128.45703125 C-28.52977189 126.54214026 -31.08951843 124.61918939 -33.64648438 122.69238281 C-35.16324861 121.54991972 -36.68302494 120.41145835 -38.203125 119.2734375 C-51.88733567 108.73743481 -61.65787418 95.09905088 -64.91015625 77.90234375 C-67.272987 57.55447121 -63.64456282 40.06219823 -51.1796875 23.625 C-38.14666364 8.30302212 -20.07275756 -0.21455442 0 0 Z " fill="#FEBF06" transform="translate(126.3125,153.5625)"/>
<path d="M0 0 C6.05220881 2.6819592 10.30249759 7.73006264 13.79296875 13.23828125 C15.92143947 18.77634013 15.62416661 26.71971291 13.4921875 32.2578125 C9.20628583 39.40098195 4.90451118 44.18758099 -3.3828125 46.3828125 C-10.46994004 47.36208796 -16.58126741 46.76156852 -22.3828125 42.3828125 C-28.38058213 36.81948896 -32.37488395 30.91857398 -32.8828125 22.5703125 C-32.63972288 15.91573406 -30.24664369 10.12755368 -25.41015625 5.4921875 C-23.45103252 3.98347913 -21.51311513 2.63642995 -19.3828125 1.3828125 C-18.77050781 1.00898438 -18.15820312 0.63515625 -17.52734375 0.25 C-12.253934 -1.88241706 -5.43209843 -1.40700254 0 0 Z " fill="#FCFDFE" transform="translate(365.3828125,377.6171875)"/>
<path d="M0 0 C6.57408755 3.64421861 11.46312456 8.79889111 13.8125 16 C14.97848699 23.99007928 13.43715755 30.39830135 8.8125 37 C4.69809623 41.43584156 0.5393471 44.70155475 -5.578125 45.37109375 C-13.27116846 45.50346393 -19.32693983 45.55430762 -25.1875 40 C-30.72613169 34.53604649 -33.45525361 29.75726187 -33.6875 21.8125 C-33.55421785 14.88182827 -31.7952393 10.18838937 -27.1875 5 C-18.95285414 -1.86220488 -10.14117812 -4.62090379 0 0 Z " fill="#FCFDFE" transform="translate(457.1875,102)"/>
<path d="M0 0 C7.02708245 3.56911569 11.44873522 7.7491381 14.1875 15.25 C15.58556553 23.56010152 13.99901047 30.36194291 9.1875 37.25 C4.97958884 42.05904132 -0.33660265 44.80823092 -6.609375 45.60546875 C-13.8912292 45.94738322 -19.03220146 44.76029455 -24.8125 40.25 C-30.56210154 35.00474947 -32.94688031 29.03662447 -33.375 21.4375 C-33.17650809 14.82937335 -31.15043155 10.21393387 -26.8125 5.25 C-18.76731972 -1.46799918 -10.01584011 -4.27812266 0 0 Z " fill="#FCFEFC" transform="translate(280.8125,89.75)"/>
<path d="M0 0 C7.34434582 4.34665365 11.25051934 8.65060699 14.0625 16.8125 C15.34084425 23.46195192 13.87230307 28.70290266 10.61328125 34.55078125 C6.72093971 40.22752117 1.65486585 43.80126974 -4.9375 45.8125 C-12.54727636 46.96939168 -18.69322042 45.3019217 -24.9375 40.8125 C-27.30822989 38.33890786 -29.20184782 35.76193597 -30.9375 32.8125 C-31.31003906 32.21050781 -31.68257813 31.60851562 -32.06640625 30.98828125 C-34.28348023 25.45056731 -34.02673941 17.9051619 -32.0625 12.328125 C-25.30746407 0.86234033 -12.99991993 -5.13001325 0 0 Z " fill="#FFFEFB" transform="translate(134.9375,196.1875)"/>
<path d="M0 0 C5.84855268 3.53428667 10.49513974 8.98586484 12.5625 15.5 C13.4326808 22.83582654 13.18488721 29.51278537 8.5625 35.5 C3.76169542 40.56139105 -0.61385979 44.06601455 -7.70703125 44.87109375 C-15.332867 45.01402562 -20.70842523 44.80272502 -26.4375 39.5 C-32.16214463 33.98072379 -34.45945693 29.13466464 -34.8125 21.125 C-34.65355498 14.60825434 -33.07173872 10.23140327 -28.53125 5.5234375 C-20.48365972 -1.77344473 -10.57409991 -4.69498345 0 0 Z " fill="#FEFDFD" transform="translate(74.4375,377.5)"/>
</svg>
